<svg width="30" height="30" viewBox="0 0 30 30" fill="none" xmlns="http://www.w3.org/2000/svg">
<path d="M22.6406 27.1875H14.3906C11.8594 27.1875 9.84375 25.125 9.84375 22.6406V21.2813C9.84375 18.75 11.9063 16.7344 14.3906 16.7344H22.6406C25.1719 16.7344 27.1875 18.7969 27.1875 21.2813V22.6406C27.1875 25.125 25.125 27.1875 22.6406 27.1875Z" fill="#96E8BA"/>
<path d="M21.0937 24.9375H7.96875C6.14062 24.9375 4.64062 23.5781 4.64062 21.8906V7.07813C4.64062 5.39063 6.14062 4.03125 7.96875 4.03125H14.8594C15.2344 4.03125 15.5156 4.3125 15.5156 4.6875C15.5156 5.0625 15.2344 5.34375 14.8594 5.34375H7.96875C6.84375 5.34375 5.95312 6.14063 5.95312 7.07813V21.8438C5.95312 22.7813 6.84375 23.5781 7.96875 23.5781H21.0937C22.2187 23.5781 23.1094 22.7813 23.1094 21.8438V9.5625C23.1094 9.1875 23.3906 8.90625 23.7656 8.90625C24.1406 8.90625 24.4219 9.1875 24.4219 9.5625V21.8438C24.4219 23.5313 22.9219 24.9375 21.0937 24.9375Z" fill="#8B8D97"/>
<path d="M15.4219 11.0157C15.2344 11.0157 15.0937 10.9688 14.9531 10.8282C14.7187 10.5469 14.7188 10.1719 15 9.89066L23.25 2.06253C23.5312 1.82816 23.9062 1.82816 24.1875 2.10941C24.4219 2.39066 24.4219 2.76566 24.1406 3.04691L15.8906 10.8282C15.75 10.9688 15.6094 11.0157 15.4219 11.0157ZM20.1562 13.0782H9.375C9 13.0782 8.71875 12.7969 8.71875 12.4219C8.71875 12.0469 9 11.7657 9.375 11.7657H20.1562C20.5312 11.7657 20.8125 12.0469 20.8125 12.4219C20.8125 12.7969 20.5312 13.0782 20.1562 13.0782ZM20.1562 16.8282H9.375C9 16.8282 8.71875 16.5469 8.71875 16.1719C8.71875 15.7969 9 15.5157 9.375 15.5157H20.1562C20.5312 15.5157 20.8125 15.7969 20.8125 16.1719C20.8125 16.5469 20.5312 16.8282 20.1562 16.8282ZM20.1562 20.1094H9.375C9 20.1094 8.71875 19.8282 8.71875 19.4532C8.71875 19.0782 9 18.7969 9.375 18.7969H20.1562C20.5312 18.7969 20.8125 19.0782 20.8125 19.4532C20.8125 19.8282 20.5312 20.1094 20.1562 20.1094Z" fill="#8B8D97"/>
</svg>
