<svg width="28" height="28" viewBox="0 0 28 28" fill="none" xmlns="http://www.w3.org/2000/svg">
<path d="M22.4437 25.375H14.7438C12.3813 25.375 10.5 23.45 10.5 21.1313V19.8625C10.5 17.5 12.425 15.6188 14.7438 15.6188H22.4437C24.8062 15.6188 26.6875 17.5438 26.6875 19.8625V21.1313C26.6875 23.45 24.7625 25.375 22.4437 25.375Z" fill="#64CFA2"/>
<path d="M21.1314 23.5812H5.99395C3.89395 23.5812 2.23145 21.875 2.23145 19.8187V7.7437C2.23145 5.6437 3.9377 3.9812 5.99395 3.9812H21.0877C23.1877 3.9812 24.8502 5.68745 24.8502 7.7437V19.775C24.8939 21.875 23.1877 23.5812 21.1314 23.5812ZM5.99395 5.2062C4.59395 5.2062 3.45645 6.3437 3.45645 7.7437V19.775C3.45645 21.175 4.59395 22.3125 5.99395 22.3125H21.0877C22.4877 22.3125 23.6252 21.175 23.6252 19.775V7.7437C23.6252 6.3437 22.4877 5.2062 21.0877 5.2062H5.99395Z" fill="#103E26"/>
<path d="M8.09395 7.17495C7.74395 7.17495 7.48145 6.91245 7.48145 6.56245V2.18745C7.48145 1.83745 7.74395 1.57495 8.09395 1.57495C8.44395 1.57495 8.70645 1.83745 8.70645 2.18745V6.56245C8.70645 6.91245 8.44395 7.17495 8.09395 7.17495ZM18.5939 7.17495C18.2439 7.17495 17.9814 6.91245 17.9814 6.56245V2.18745C17.9814 1.83745 18.2439 1.57495 18.5939 1.57495C18.9439 1.57495 19.2064 1.83745 19.2064 2.18745V6.56245C19.2064 6.91245 18.9439 7.17495 18.5939 7.17495ZM24.0627 10.4562H3.0627C2.7127 10.4562 2.4502 10.1937 2.4502 9.8437C2.4502 9.4937 2.7127 9.2312 3.0627 9.2312H24.0627C24.4127 9.2312 24.6752 9.4937 24.6752 9.8437C24.6752 10.1937 24.4127 10.4562 24.0627 10.4562ZM9.23145 14.3937H5.03145C4.68145 14.3937 4.41895 14.1312 4.41895 13.7812C4.41895 13.4312 4.68145 13.1687 5.03145 13.1687H9.23145C9.58145 13.1687 9.84395 13.4312 9.84395 13.7812C9.84395 14.1312 9.5377 14.3937 9.23145 14.3937ZM15.5314 14.3937H11.3752C11.0252 14.3937 10.7627 14.1312 10.7627 13.7812C10.7627 13.4312 11.0252 13.1687 11.3752 13.1687H15.5752C15.9252 13.1687 16.1877 13.4312 16.1877 13.7812C16.1877 14.1312 15.8814 14.3937 15.5314 14.3937ZM21.8752 14.3937H17.6752C17.3252 14.3937 17.0627 14.1312 17.0627 13.7812C17.0627 13.4312 17.3252 13.1687 17.6752 13.1687H21.8752C22.2252 13.1687 22.4877 13.4312 22.4877 13.7812C22.4877 14.1312 22.2252 14.3937 21.8752 14.3937ZM9.23145 18.7687H5.03145C4.68145 18.7687 4.41895 18.5062 4.41895 18.1562C4.41895 17.8062 4.68145 17.5437 5.03145 17.5437H9.23145C9.58145 17.5437 9.84395 17.8062 9.84395 18.1562C9.84395 18.5062 9.5377 18.7687 9.23145 18.7687ZM15.5314 18.7687H11.3752C11.0252 18.7687 10.7627 18.5062 10.7627 18.1562C10.7627 17.8062 11.0252 17.5437 11.3752 17.5437H15.5752C15.9252 17.5437 16.1877 17.8062 16.1877 18.1562C16.1877 18.5062 15.8814 18.7687 15.5314 18.7687Z" fill="#103E26"/>
</svg>
