<svg width="30" height="30" viewBox="0 0 30 30" fill="none" xmlns="http://www.w3.org/2000/svg">
<path d="M21 28.5938C17.2031 28.5938 14.0625 25.4531 14.0625 21.6563C14.0625 17.8594 17.2031 14.7188 21 14.7188C24.7969 14.7188 27.9375 17.8594 27.9375 21.6563C27.9844 25.4531 24.8438 28.5938 21 28.5938Z" fill="#96E8BA"/>
<path d="M20.8594 26.7188H6.79687C4.35937 26.7188 2.34375 24.7031 2.34375 22.2656V12.4219C2.34375 12.2344 2.4375 12.0469 2.57812 11.9062L5.67187 9.32812C5.95312 9.09375 6.375 9.14062 6.65625 9.42188C6.89062 9.70312 6.84375 10.125 6.5625 10.4063L3.70312 12.75V22.2656C3.70312 23.9531 5.0625 25.3125 6.75 25.3125H20.8125C22.5 25.3125 23.8594 23.9531 23.8594 22.2656V12.75L13.8281 4.40625L11.25 6.51562C10.9687 6.75 10.5469 6.70312 10.2656 6.42188C10.0312 6.14062 10.0781 5.71875 10.3594 5.4375L13.3594 2.95312C13.5937 2.76563 13.9687 2.76563 14.25 2.95312L25.0312 11.8594C25.1719 12 25.2656 12.1875 25.2656 12.375V22.2188C25.3125 24.7031 23.2969 26.7188 20.8594 26.7188Z" fill="#8B8D97"/>
<path d="M7.92204 9.00004C7.73454 9.00004 7.54704 8.90629 7.40641 8.76567C7.17204 8.48442 7.21891 8.06254 7.50016 7.78129L8.76579 6.70317C9.04704 6.46879 9.46891 6.51567 9.75016 6.79692C9.98454 7.07817 9.93766 7.50004 9.65641 7.78129L8.39079 8.85942C8.20329 8.95317 8.06266 9.00004 7.92204 9.00004ZM19.2189 19.5938H8.43766C8.10954 19.5938 7.82829 19.3125 7.82829 18.9844C7.82829 18.6563 8.10954 18.375 8.43766 18.375H19.2189C19.547 18.375 19.8283 18.6563 19.8283 18.9844C19.8283 19.3125 19.547 19.5938 19.2189 19.5938Z" fill="#8B8D97"/>
</svg>
