<svg width="36" height="35" viewBox="0 0 36 35" fill="none" xmlns="http://www.w3.org/2000/svg">
<path d="M28.3307 9.52769C26.2959 9.3183 24.4176 9.68474 23.061 10.47C23.6871 11.3076 24.1045 12.564 24.1045 14.0297C24.1045 15.2338 23.8437 16.2808 23.3741 17.066C24.5219 17.7466 25.9828 18.2177 27.6002 18.3747C31.5133 18.7412 34.8525 17.066 35.009 14.6056C35.1656 12.1452 32.2438 9.89414 28.3307 9.52769Z" fill="#FFB89A"/>
<path d="M20.974 28.6353H14.5565C13.1478 28.6353 11.9478 29.7869 11.9478 31.2527C11.9478 32.6662 13.0956 33.8702 14.5565 33.8702H20.974C22.3827 33.8702 23.5827 32.7185 23.5827 31.2527C23.5305 29.7869 22.3827 28.6353 20.974 28.6353ZM20.974 31.9333H14.5565C14.4521 31.9333 14.4 31.5668 14.4 31.148C14.4 30.7292 14.5043 30.3628 14.5565 30.3628H20.974C21.0783 30.3628 21.1305 30.7292 21.1305 31.148C21.1305 31.5668 21.0261 31.9333 20.974 31.9333Z" fill="#103E26"/>
<path d="M17.1652 11.3599C16.8 10.8364 16.0174 10.6794 15.4957 11.0982C14.9739 11.4646 14.8174 12.2499 15.2348 12.7734C15.6522 13.4016 15.9131 14.1345 15.9131 14.8674C15.9131 15.5479 16.4348 16.0714 17.1131 16.0714C17.7913 16.0714 18.3131 15.5479 18.3131 14.8674C18.3131 13.611 17.8957 12.3546 17.1652 11.3599ZM14.5043 9.26596C13.7739 9.00422 13.0434 8.84717 12.2608 8.84717C8.97382 8.84717 6.26074 11.517 6.26074 14.8674C6.26074 15.5479 6.78249 16.0714 7.46076 16.0714C8.13903 16.0714 8.66078 15.5479 8.66078 14.8674C8.66078 12.8781 10.2782 11.2552 12.2608 11.2552C12.7304 11.2552 13.1478 11.3599 13.6174 11.517C14.2435 11.7787 14.9217 11.4646 15.1826 10.8364C15.4435 10.2083 15.1304 9.52771 14.5043 9.26596Z" fill="#96E8BA"/>
<path d="M33.1829 11.831C32.7133 11.0458 32.0872 10.3653 31.2524 9.73707L33.4438 7.38135C33.9133 6.9102 33.8612 6.12496 33.3916 5.65382C32.8698 5.23502 32.0872 5.28737 31.6698 5.75852L29.0611 8.58539C28.8524 8.53304 28.6437 8.42834 28.435 8.37599L31.7742 1.93701C32.0872 1.36117 31.8263 0.628275 31.2524 0.314179C30.6785 8.22097e-05 29.9481 0.261829 29.635 0.837673L25.9306 7.95719H25.2523C24.3654 7.95719 23.4784 8.06189 22.6436 8.27129C22.0175 8.42834 21.6001 9.05653 21.7566 9.73707C21.9132 10.3653 22.5393 10.7841 23.2175 10.627C23.8958 10.47 24.5741 10.4176 25.2523 10.4176C27.0263 10.4176 28.6437 10.8888 29.8437 11.7787C30.9394 12.5639 31.5133 13.5586 31.5133 14.6056C31.5133 15.2861 32.035 15.8096 32.7133 15.8096C33.3916 15.8096 33.9133 15.2861 33.9133 14.6056C33.9655 13.6109 33.7046 12.721 33.1829 11.831Z" fill="#103E26"/>
<path d="M26.2439 31.5668C25.8787 31.5668 25.5135 31.3574 25.357 30.9909C25.0961 30.5198 25.3048 29.8916 25.8265 29.6822C30.5222 27.3265 33.6005 23.0338 33.9658 18.27H2.08706C2.45228 22.8768 5.37406 27.1171 9.91326 29.4728C10.3828 29.7346 10.5915 30.3104 10.3307 30.8339C10.0698 31.305 9.49586 31.5144 8.97411 31.2527C3.4436 28.3735 0.0522461 23.0338 0.0522461 17.2754V16.2808H35.9484V17.2754C35.9484 23.1909 32.4005 28.5829 26.6613 31.4621C26.5048 31.5144 26.3483 31.5668 26.2439 31.5668Z" fill="#103E26"/>
<path d="M20.8701 15.3908C20.3483 15.3908 19.8788 14.9197 19.8788 14.3962C19.8788 10.1559 16.4874 6.75319 12.2613 6.75319C8.03512 6.75319 4.64377 10.1559 4.64377 14.3962C4.64377 14.9197 4.1742 15.3908 3.65245 15.3908C3.1307 15.3908 2.66113 14.9197 2.66113 14.3962C2.66113 9.10892 6.99163 4.76392 12.2613 4.76392C17.5309 4.76392 21.8614 9.10892 21.8614 14.3962C21.8614 14.9197 21.3918 15.3908 20.8701 15.3908Z" fill="#103E26"/>
</svg>
