<svg width="36" height="36" viewBox="0 0 36 36" fill="none" xmlns="http://www.w3.org/2000/svg">
<path d="M22.3201 32.76C20.5307 32.76 19.0801 31.3094 19.0801 29.52L19.0801 24.48C19.0801 20.3047 22.4648 16.92 26.6401 16.92C30.8153 16.92 34.2001 20.3047 34.2001 24.48L34.2001 31.32C34.2001 32.1153 33.5554 32.76 32.7601 32.76L27.0001 32.76L22.3201 32.76Z" fill="#96E8BA"/>
<ellipse cx="20.16" cy="26.28" rx="2.16" ry="5.4" fill="#FFB89A"/>
<path d="M34.9802 13.2925L31.9603 7.28081C32.6001 6.7605 33.008 5.96597 33.008 5.08003C33.008 3.51558 31.7353 2.24292 30.1709 2.24292H20.8087C19.2443 2.24292 17.9716 3.51558 17.9716 5.08003C17.9716 5.96597 18.3794 6.75698 19.0193 7.28081L15.9994 13.2925L15.813 13.6652V14.7585C15.7111 14.741 15.6091 14.7234 15.5037 14.7128C15.3771 14.6988 15.247 14.6917 15.1169 14.6917C14.681 14.6917 14.2521 14.7691 13.8478 14.9132C13.2466 14.523 12.5365 14.305 11.7877 14.305C11.0388 14.305 10.3252 14.523 9.72398 14.9203C9.3232 14.7761 8.89429 14.7023 8.45836 14.7023C7.44586 14.7023 6.49312 15.096 5.77945 15.8097C5.06578 16.5234 4.67203 17.4761 4.67203 18.4886C4.67203 18.5906 4.67554 18.6925 4.68609 18.7945C4.45758 18.9351 4.23257 19.0898 4.01812 19.255C3.34312 19.7718 2.7525 20.3871 2.27086 21.0832C1.77867 21.7933 1.4025 22.5738 1.15992 23.3964C0.906794 24.2542 0.801325 25.1472 0.843513 26.0472C0.94195 28.139 1.83843 30.0867 3.37476 31.5316C4.89703 32.966 6.89039 33.7535 8.98218 33.7535H15.2541C16.0486 33.7535 16.8255 33.6375 17.5744 33.4125C18.0068 33.6304 18.4955 33.7535 19.0087 33.7535H31.9673C33.7322 33.7535 35.1666 32.3191 35.1666 30.5542V13.6617L34.9802 13.2925ZM21.5294 6.198L20.8087 6.16284C20.2111 6.16284 19.7294 5.67769 19.7294 5.08354C19.7294 4.4894 20.2146 4.00425 20.8087 4.00425H30.1673C30.765 4.00425 31.2466 4.4894 31.2466 5.08354C31.2466 5.67769 30.7615 6.16284 30.1673 6.16284L29.4466 6.198L32.3857 12.0515C31.8759 12.1851 30.8951 12.382 29.5451 12.382C28.3568 12.382 27.0912 11.9812 25.8642 11.5945C24.6091 11.1972 23.3119 10.7859 22.0462 10.7859C21.0056 10.7859 19.9017 11.0074 18.9876 11.2535L21.5294 6.198ZM16.1259 31.9359C15.8412 31.9746 15.5494 31.9957 15.2541 31.9957H8.97867C5.58961 31.9957 2.75601 29.3519 2.59781 25.9664C2.46422 23.0765 4.29234 20.598 6.84468 19.7015C6.58453 19.364 6.42984 18.9421 6.42984 18.4886C6.42984 17.3636 7.33336 16.4601 8.45836 16.4601C9.07359 16.4601 9.62203 16.7378 9.98765 17.1738C10.3252 16.5199 10.9966 16.0664 11.7877 16.0664C12.5752 16.0664 13.2502 16.5093 13.5877 17.1632C13.9638 16.7308 14.5017 16.4496 15.1169 16.4496C15.1873 16.4496 15.2541 16.4531 15.3244 16.4601C15.4931 16.4777 15.6548 16.5164 15.8095 16.5726C16.5689 16.8503 17.1138 17.5675 17.1455 18.4042C17.163 18.8296 17.0435 19.2128 16.8396 19.5398C17.0892 19.6066 17.3318 19.6839 17.5673 19.7789C19.9158 20.707 21.5892 22.9851 21.5822 25.6675C21.5822 28.2199 20.0529 30.4312 17.8627 31.4296C17.3212 31.6792 16.7341 31.8515 16.1259 31.9359ZM33.4087 14.8007V30.5578C33.4087 31.3523 32.7654 31.9992 31.9673 31.9992H20.2744C20.5134 31.8093 20.7455 31.6019 20.9634 31.3839C21.7052 30.6421 22.2888 29.7773 22.6966 28.814C23.122 27.8156 23.3365 26.7609 23.3365 25.671C23.34 24.75 23.1853 23.8429 22.883 22.9781C22.5912 22.1449 22.1623 21.3679 21.6138 20.6718C21.0724 19.9863 20.4255 19.3921 19.6943 18.9105C19.4377 18.7417 19.174 18.5871 18.9033 18.45C18.9033 18.4113 18.9033 18.3726 18.8998 18.3339C18.8646 17.4234 18.5025 16.555 17.8767 15.8906C17.7783 15.7851 17.6728 15.6867 17.5638 15.5953V14.8007V14.08L17.8767 13.4578C18.5517 13.2011 20.4396 12.5402 22.0462 12.5402C23.0412 12.5402 24.1556 12.8917 25.3334 13.2679C26.6869 13.6968 28.0861 14.1398 29.5451 14.1398C31.4084 14.1398 32.688 13.8058 33.1873 13.6511L33.4052 14.0835C33.4087 14.0835 33.4087 14.2417 33.4087 14.8007Z" fill="#103E26"/>
<path d="M18.6891 28.023C18.5591 28.023 18.4255 27.9949 18.2989 27.9316C17.863 27.7172 17.6872 27.1898 17.9017 26.7539C18.313 25.9277 18.2497 25.1262 17.7083 24.3105C17.2759 23.6531 16.7028 23.2523 16.6993 23.2488C16.2985 22.9746 16.1966 22.4297 16.4708 22.0289C16.745 21.6281 17.2899 21.5262 17.6907 21.8004C17.7786 21.8601 18.5591 22.4086 19.1778 23.3437C20.0673 24.6937 20.1692 26.1422 19.4766 27.5379C19.322 27.8437 19.0126 28.023 18.6891 28.023Z" fill="#103E26"/>
</svg>
