<svg width="36" height="33" viewBox="0 0 36 33" fill="none" xmlns="http://www.w3.org/2000/svg">
<g clip-path="url(#clip0_797_5631)">
<path d="M20.6862 30.3548C24.6474 30.0895 28.3543 28.2999 31.0355 25.3583C33.7168 22.4167 35.1659 18.5496 35.0814 14.5618H6.30723C6.22252 18.547 7.66941 22.4117 10.3472 25.3529C13.025 28.2941 16.7279 30.0855 20.6862 30.3548Z" fill="#96E8BA"/>
<ellipse cx="31.3199" cy="11.52" rx="3.96" ry="3.6" fill="#FFB89A"/>
<path d="M17.9737 32.8337C14.7717 32.869 11.6166 32.0595 8.82343 30.4861C6.24039 28.9935 4.08476 26.8559 2.56533 24.2805C2.44974 24.0815 2.4158 23.8451 2.4707 23.6214C2.5256 23.3977 2.66503 23.2043 2.85945 23.0821C2.95445 23.0232 3.06027 22.9841 3.17061 22.9671C3.28095 22.9501 3.39356 22.9555 3.50177 22.9831C3.60998 23.0106 3.71157 23.0598 3.80052 23.1275C3.88947 23.1953 3.96396 23.2803 4.01956 23.3776C5.84544 26.3969 8.59205 28.7439 11.8514 30.0699C15.1107 31.3959 18.7088 31.63 22.1111 30.7376C25.5134 29.8452 28.5384 27.8739 30.7368 25.1164C32.9351 22.359 34.1894 18.9626 34.3133 15.4318H1.73201C1.73201 15.8751 1.73201 16.3019 1.83005 16.7288C1.84606 16.8401 1.83958 16.9535 1.811 17.0623C1.78242 17.171 1.73232 17.2729 1.66369 17.3618C1.59506 17.4506 1.50931 17.5247 1.41156 17.5795C1.31381 17.6344 1.20607 17.6689 1.09476 17.6809C0.869807 17.7091 0.642843 17.6475 0.462598 17.5094C0.282353 17.3712 0.163199 17.1676 0.130718 16.9422C0.0464485 16.1515 0.00281808 15.357 1.37405e-08 14.5617C-4.03735e-05 14.3338 0.0889527 14.1149 0.247843 13.9522C0.406733 13.7895 0.622829 13.696 0.849664 13.6917H35.163C35.3899 13.696 35.6059 13.7895 35.7648 13.9522C35.9237 14.1149 36.0127 14.3338 36.0127 14.5617C36.0944 19.3368 34.3383 23.9593 31.1108 27.4654C29.5014 29.1532 27.5667 30.4938 25.4246 31.4055C23.0616 32.3794 20.5275 32.8651 17.9737 32.8337ZM2.04246 22.0807C1.87232 22.0816 1.70596 22.0302 1.56575 21.9334C1.42555 21.8365 1.31821 21.6989 1.25816 21.5389C1.06208 21.0136 0.882343 20.4882 0.735286 19.8972C0.702946 19.7884 0.692559 19.6741 0.704732 19.5612C0.716906 19.4482 0.751395 19.3388 0.806179 19.2395C0.860963 19.1401 0.93494 19.0527 1.02377 18.9824C1.11261 18.9121 1.21451 18.8603 1.32351 18.8301C1.54018 18.7695 1.77193 18.7977 1.96796 18.9085C2.16398 19.0193 2.30829 19.2036 2.36926 19.4211C2.51631 19.9136 2.66337 20.3897 2.84311 20.8658C2.88513 20.9713 2.90576 21.0842 2.90379 21.1978C2.90182 21.3115 2.87728 21.4236 2.83163 21.5275C2.78597 21.6315 2.72011 21.7253 2.6379 21.8034C2.5557 21.8814 2.45881 21.9422 2.35292 21.9822C2.25013 21.9993 2.14524 21.9993 2.04246 21.9822V22.0807Z" fill="#103E26"/>
<path d="M29.5912 7.4861C29.2768 6.22024 28.5942 5.07718 27.6305 4.20272C26.5894 3.29391 25.2811 2.75199 23.905 2.65954C23.1387 1.8202 22.2069 1.1503 21.1688 0.69243C20.1308 0.234563 19.0093 -0.00124548 17.8757 4.94706e-06C16.0986 0.02361 14.3776 0.62879 12.9738 1.72378L12.6143 2.01928C12.3855 2.21628 12.1895 2.41328 11.9771 2.6267C10.5533 2.72493 9.20758 3.3168 8.16991 4.30122C7.23351 5.1818 6.58416 6.32639 6.30718 7.5846C5.52463 7.76815 4.78579 8.10498 4.13297 8.57579C3.48014 9.04661 2.92615 9.64216 2.5027 10.3284C2.07925 11.0146 1.79467 11.778 1.66524 12.5748C1.53581 13.3717 1.56407 14.1863 1.74841 14.9722C1.75809 15.0099 1.75809 15.0494 1.74841 15.0871H3.54577C3.35611 14.5952 3.26182 14.0714 3.268 13.5439C3.25944 12.4524 3.65958 11.3975 4.38902 10.5886C5.11847 9.77971 6.12391 9.27586 7.20587 9.17704C7.39795 9.1558 7.57709 9.06941 7.71373 8.93212C7.85037 8.79483 7.93635 8.61485 7.95749 8.42186C8.05738 7.68437 8.33215 6.98179 8.75868 6.37326C9.18521 5.76472 9.75101 5.26806 10.4084 4.92507C10.2292 5.32496 10.0764 5.73627 9.95093 6.15633C9.9408 6.35799 10.0008 6.55692 10.1206 6.71902C10.2405 6.88112 10.4127 6.99629 10.6078 7.04481C10.8028 7.09332 11.0086 7.07216 11.1899 6.98494C11.3712 6.89772 11.5166 6.74988 11.6012 6.56675C11.9808 5.19283 12.7952 3.98037 13.9212 3.11258C15.0473 2.24479 16.4239 1.76883 17.843 1.75661C19.2677 1.76171 20.6518 2.2344 21.7844 3.10273C22.9171 3.97106 23.7363 5.18746 24.1174 6.56675C24.1784 6.78427 24.3227 6.96862 24.5187 7.0794C24.7148 7.19019 24.9465 7.21837 25.1632 7.15776C25.2722 7.12755 25.3741 7.07578 25.4629 7.00549C25.5518 6.93521 25.6257 6.84781 25.6805 6.74843C25.7353 6.64904 25.7698 6.53967 25.782 6.42673C25.7941 6.31378 25.7838 6.19953 25.7514 6.09066C25.6195 5.64699 25.4557 5.21354 25.2612 4.79373C25.9828 5.10588 26.6126 5.59884 27.0904 6.22545C27.5681 6.85205 27.8779 7.59135 27.99 8.37261C28.0155 8.55677 28.0991 8.72787 28.2285 8.86082C28.3579 8.99376 28.5262 9.08157 28.7089 9.11137C29.9096 9.309 30.9837 9.97572 31.6969 10.9661C32.4102 11.9564 32.7046 13.19 32.516 14.3976C32.4789 14.6259 32.4243 14.8509 32.3526 15.0707H34.1173C34.228 14.6028 34.2829 14.1233 34.2807 13.6424C34.2831 12.1202 33.7442 10.6472 32.7611 9.48896C31.9348 8.50949 30.8278 7.81006 29.5912 7.4861Z" fill="#103E26"/>
<path d="M15.114 7.12491C15.114 7.29769 15.0627 7.46655 14.9668 7.60997C14.8709 7.75339 14.7347 7.86488 14.5755 7.93022C14.4163 7.99557 14.2414 8.01181 14.073 7.97689C13.9045 7.94196 13.7503 7.85745 13.6298 7.73412C13.5094 7.61079 13.4282 7.45422 13.3967 7.28437C13.3651 7.11452 13.3846 6.93908 13.4527 6.78041C13.5208 6.62173 13.6343 6.48701 13.7788 6.39341C13.9234 6.2998 14.0924 6.25156 14.2643 6.25482C14.3773 6.2548 14.4891 6.27741 14.5933 6.32133C14.6975 6.36526 14.7919 6.42961 14.871 6.51063C14.9501 6.59165 15.0124 6.6877 15.0541 6.79318C15.0958 6.89865 15.1162 7.01143 15.114 7.12491ZM19.6074 4.53104C19.4361 4.53104 19.2687 4.58207 19.1263 4.67768C18.9839 4.77329 18.8729 4.90918 18.8073 5.06817C18.7418 5.22716 18.7246 5.4021 18.7581 5.57089C18.7915 5.73967 18.8739 5.8947 18.9951 6.01639C19.1162 6.13807 19.2705 6.22094 19.4385 6.25451C19.6065 6.28809 19.7806 6.27086 19.9388 6.205C20.0971 6.13915 20.2323 6.02762 20.3275 5.88454C20.4226 5.74145 20.4734 5.57323 20.4734 5.40114C20.4756 5.28626 20.4548 5.17212 20.412 5.06555C20.3693 4.95897 20.3056 4.86216 20.2247 4.78092C20.1439 4.69968 20.0475 4.63567 19.9414 4.59273C19.8354 4.5498 19.7218 4.52881 19.6074 4.53104ZM24.1172 10.1292C23.9459 10.1292 23.7785 10.1802 23.636 10.2758C23.4936 10.3714 23.3826 10.5073 23.3171 10.6663C23.2515 10.8253 23.2344 11.0003 23.2678 11.169C23.3012 11.3378 23.3837 11.4929 23.5048 11.6145C23.6259 11.7362 23.7802 11.8191 23.9482 11.8527C24.1162 11.8862 24.2903 11.869 24.4486 11.8032C24.6068 11.7373 24.7421 11.6258 24.8372 11.4827C24.9324 11.3396 24.9832 11.1714 24.9832 10.9993C24.9832 10.7685 24.8919 10.5472 24.7295 10.384C24.5671 10.2209 24.3469 10.1292 24.1172 10.1292ZM17.8101 9.53819C17.6388 9.53819 17.4713 9.58922 17.3289 9.68483C17.1865 9.78043 17.0755 9.91632 17.01 10.0753C16.9444 10.2343 16.9273 10.4092 16.9607 10.578C16.9941 10.7468 17.0766 10.9018 17.1977 11.0235C17.3188 11.1452 17.4731 11.2281 17.6411 11.2617C17.8091 11.2952 17.9832 11.278 18.1415 11.2121C18.2997 11.1463 18.4349 11.0348 18.5301 10.8917C18.6253 10.7486 18.6761 10.5804 18.6761 10.4083C18.6761 10.1775 18.5848 9.95621 18.4224 9.79304C18.26 9.62986 18.0397 9.53819 17.8101 9.53819ZM10.6206 10.1292C10.4476 10.1193 10.2756 10.1619 10.1269 10.2513C9.97814 10.3407 9.85955 10.4729 9.78643 10.6308C9.7133 10.7886 9.68901 10.9649 9.71668 11.1368C9.74435 11.3087 9.82272 11.4683 9.94165 11.595C10.0606 11.7216 10.2146 11.8095 10.3838 11.8473C10.553 11.885 10.7295 11.8709 10.8906 11.8068C11.0518 11.7426 11.19 11.6314 11.2875 11.4874C11.385 11.3435 11.4373 11.1734 11.4376 10.9993C11.4397 10.8858 11.4194 10.773 11.3776 10.6676C11.3359 10.5621 11.2737 10.466 11.1946 10.385C11.1154 10.304 11.021 10.2396 10.9169 10.1957C10.8127 10.1518 10.7009 10.1292 10.5879 10.1292H10.6206Z" fill="#103E26"/>
</g>
<defs>
<clipPath id="clip0_797_5631">
<rect width="36" height="32.8352" fill="white"/>
</clipPath>
</defs>
</svg>
