<svg width="30" height="30" viewBox="0 0 30 30" fill="none" xmlns="http://www.w3.org/2000/svg">
<path d="M22.1719 28.5938H13.9219C11.3906 28.5938 9.375 26.5312 9.375 24.0469V22.6875C9.375 20.1563 11.4375 18.1406 13.9219 18.1406H22.1719C24.7031 18.1406 26.7188 20.2031 26.7188 22.6875V24.0469C26.7188 26.5312 24.6562 28.5938 22.1719 28.5938Z" fill="#96E8BA"/>
<path d="M24.5626 13.2188H4.31261C3.70324 13.2188 3.23449 12.8906 3.00011 12.3281C2.76574 11.7656 2.90636 11.2031 3.32824 10.7812L6.98449 7.54688C7.17199 7.35938 7.50011 7.40625 7.68761 7.59375C7.87511 7.78125 7.82824 8.10938 7.64074 8.29688L3.98449 11.5312C3.79699 11.7188 3.89074 11.9531 3.89074 12C3.89074 12.0469 4.03136 12.2812 4.31261 12.2812H24.6095C24.8907 12.2812 25.0314 12.0469 25.0314 12C25.0782 11.9531 25.1251 11.7188 24.9376 11.4844L14.8126 2.57812C14.5782 2.34375 14.297 2.39062 14.1095 2.57812L10.9689 5.34375C10.7814 5.53125 10.4532 5.48438 10.2657 5.29688C10.0782 5.10938 10.1251 4.78125 10.3126 4.59375L13.4064 1.82813C13.6876 1.54688 14.0626 1.40625 14.4376 1.40625C14.8126 1.40625 15.1876 1.54688 15.4689 1.82813L25.5939 10.7344C26.0157 11.1562 26.1564 11.7656 25.922 12.3281C25.6876 12.8438 25.172 13.2188 24.5626 13.2188Z" fill="#8B8D97"/>
<path d="M8.29688 7.4531C8.15625 7.4531 8.01562 7.40623 7.92188 7.31248C7.73438 7.12498 7.78125 6.79685 7.96875 6.60935L9.23438 5.48435C9.42188 5.29685 9.75 5.34373 9.9375 5.53123C10.125 5.71873 10.0781 6.04685 9.89063 6.23435L8.625 7.35935C8.53125 7.40623 8.4375 7.4531 8.29688 7.4531ZM23.8125 26.25H17.25C16.9688 26.25 16.7812 26.0156 16.7812 25.7812V20.625H12.1406V25.7812C12.1406 26.0625 11.9062 26.25 11.6719 26.25H5.10938C4.82812 26.25 4.64062 26.0156 4.64062 25.7812V14.0625C4.64062 13.7812 4.875 13.5937 5.10938 13.5937C5.34375 13.5937 5.57812 13.8281 5.57812 14.0625V25.3125H11.1562V20.1562C11.1562 19.875 11.3906 19.6875 11.625 19.6875H17.25C17.5312 19.6875 17.7188 19.9219 17.7188 20.1562V25.3125H23.2969V14.0625C23.2969 13.7812 23.5313 13.5937 23.7656 13.5937C24 13.5937 24.2344 13.8281 24.2344 14.0625V25.7812C24.2813 26.0625 24.0938 26.25 23.8125 26.25Z" fill="#8B8D97"/>
<path d="M17.3438 17.3437H11.7188C11.4375 17.3437 11.25 17.1094 11.25 16.875C11.25 16.6406 11.4844 16.4062 11.7188 16.4062H17.3438C17.625 16.4062 17.8125 16.6406 17.8125 16.875C17.8125 17.1094 17.625 17.3437 17.3438 17.3437ZM13.875 7.8281C13.7344 7.8281 13.5469 7.73435 13.5 7.59373C13.3594 7.35935 13.4531 7.0781 13.6406 6.98435L15.2344 6.04685L13.6406 4.92185C13.4531 4.78123 13.4062 4.49998 13.5469 4.2656C13.6875 4.0781 13.9687 4.03123 14.2031 4.17185L16.4062 5.71873C16.5469 5.81248 16.5938 5.9531 16.5938 6.09373C16.5938 6.23435 16.5 6.37498 16.3594 6.46873L14.1563 7.78123C14.0625 7.8281 13.9688 7.8281 13.875 7.8281Z" fill="#8B8D97"/>
</svg>
